<?xml version="1.0" standalone="no"?>
<!DOCTYPE svg PUBLIC "-//W3C//DTD SVG 20010904//EN"
 "http://www.w3.org/TR/2001/REC-SVG-20010904/DTD/svg10.dtd">
<svg version="1.0" xmlns="http://www.w3.org/2000/svg"
 width="320.000000pt" height="320.000000pt" viewBox="0 0 320.000000 320.000000"
 preserveAspectRatio="xMidYMid meet">
<metadata>
Created by potrace 1.11, written by Peter Selinger 2001-2013
</metadata>
<g transform="translate(0.000000,320.000000) scale(0.100000,-0.100000)"
fill="#000000" stroke="none">
<path d="M734 2542 c-30 -3 -31 -3 -113 -240 -45 -130 -85 -244 -88 -252 -3
-8 -7 -19 -9 -25 -1 -5 -21 -62 -44 -125 -23 -63 -43 -122 -45 -130 -2 -8 -20
-60 -40 -115 -21 -55 -38 -104 -39 -110 -1 -5 -4 -14 -8 -20 -3 -5 -10 -26
-16 -45 -6 -19 -24 -73 -41 -120 -16 -47 -59 -168 -94 -270 -36 -102 -85 -242
-110 -313 -25 -70 -42 -129 -38 -131 3 -2 79 -3 168 -4 l161 0 21 57 c49 133
82 227 86 241 2 8 4 15 5 15 1 0 3 7 5 15 2 8 24 74 50 145 26 72 66 186 90
255 23 69 62 177 84 240 23 63 44 122 46 130 4 15 92 268 144 415 94 263 132
377 128 381 -6 6 -255 11 -303 6z"/>
<path d="M2871 2540 c-19 -3 -38 -12 -42 -20 -5 -8 -52 -141 -105 -295 -53
-154 -100 -289 -104 -300 -10 -24 -60 -166 -124 -355 -26 -74 -51 -146 -57
-158 -5 -13 -22 -63 -38 -110 -16 -48 -55 -159 -86 -247 -79 -222 -136 -388
-138 -400 -1 -6 60 -11 165 -11 146 -2 167 0 173 15 4 9 27 75 52 146 24 72
48 139 53 150 5 11 15 40 23 65 9 25 42 122 75 215 33 94 94 267 135 385 42
118 103 294 137 390 34 96 63 180 64 185 2 6 7 21 13 35 26 65 104 302 100
306 -6 6 -257 10 -296 4z"/>
<path d="M1485 1952 c-22 -1 -74 -10 -115 -19 -41 -9 -77 -17 -80 -18 -40 -8
-187 -106 -197 -131 -3 -9 32 -52 93 -114 l99 -100 55 35 c68 44 107 55 191
55 123 0 211 -45 258 -132 19 -35 19 -38 3 -39 -9 0 -189 -1 -399 -1 l-383 -1
-1 -36 c-1 -20 -2 -54 -3 -76 -2 -72 23 -179 59 -252 65 -132 196 -235 353
-277 98 -27 283 -24 360 5 15 6 27 10 27 9 0 -3 62 21 80 32 11 6 32 18 47 26
45 22 133 108 169 163 55 86 81 172 85 279 9 239 -97 418 -311 527 -34 17 -89
35 -97 32 -2 0 -16 5 -33 11 -44 17 -175 28 -260 22z m325 -677 c-1 -17 -38
-89 -59 -113 -47 -53 -172 -80 -246 -52 -48 18 -94 58 -115 100 -40 78 -48 75
200 75 140 0 220 -4 220 -10z"/>
</g>
</svg>
